<svg width="40" height="40" viewBox="0 0 40 40" fill="none" xmlns="http://www.w3.org/2000/svg">
<path d="M9.75 20C9.75 16.3333 10.7917 13.4583 12.875 11.375C14.4583 9.79167 16.5 9 19 9C21.5 9 23.4583 9.70833 24.875 11.125C26.375 12.625 27.1667 14.5417 27.25 16.875H24.25C24.0833 15.125 23.5417 13.7917 22.625 12.875C21.625 11.875 20.4167 11.375 19 11.375C17.5 11.375 16.1667 11.9583 15 13.125C13.5 14.625 12.75 16.9167 12.75 20C12.75 23.0833 13.5 25.375 15 26.875C16.0833 27.9583 17.4167 28.5 19 28.5C20.6667 28.5 21.9583 28.0417 22.875 27.125C24.0417 25.9583 24.625 24.2917 24.625 22.125H27.625C27.5417 24.9583 26.7083 27.1667 25.125 28.75C23.7083 30.1667 21.6667 30.875 19 30.875C16.5 30.875 14.4583 30.0833 12.875 28.5C10.7917 26.4167 9.75 23.5833 9.75 20Z" fill="white"/>
<path d="M38.5 20.3639C38.5 30.3545 30.2433 38.5003 20 38.5003C9.75667 38.5003 1.5 30.3545 1.5 20.3639C1.5 10.3733 9.75667 2.22754 20 2.22754C30.2433 2.22754 38.5 10.3733 38.5 20.3639Z" stroke="white" stroke-width="3"/>
</svg>
